<svg width="71" height="48" viewBox="0 0 71 48" xmlns="http://www.w3.org/2000/svg"><path d="M69.19.98a1 1 0 01.81 1V23a1 1 0 01-1 1H56.22c1.31 7.58 7.08 11.58 13.16 14.04a1 1 0 01.25 1.72l-9 7.03a1 1 0 01-.88.16c-6.65-1.8-11.65-4.51-14.93-8.6-3.3-4.09-4.82-9.45-4.82-16.35v-20a1 1 0 011-1h28a1 1 0 01.19 0zm-40 0a1 1 0 01.82 1V23a1 1 0 01-1 1H16.23c1.3 7.58 7.08 11.58 13.15 14.04a1 1 0 01.25 1.72l-9 7.03a1 1 0 01-.87.16c-6.66-1.8-11.65-4.51-14.94-8.6C1.53 34.25.01 28.89.01 21.99v-20a1 1 0 011-1h28a1 1 0 01.18 0zm38.81 2H42V22c0 6.6 1.43 11.44 4.38 15.1 2.86 3.56 7.26 6.06 13.4 7.78l7.35-5.75C60.94 36.32 54.9 31.64 54 23.08A1 1 0 0155 22h13v-19zm-40 0H2V22c0 6.6 1.44 11.44 4.38 15.1 2.87 3.56 7.26 6.06 13.4 7.78l7.35-5.75c-6.18-2.8-12.22-7.48-13.12-16.04A1 1 0 0115 22h13v-19z" fill="#DB2411" fill-rule="nonzero"/></svg>