<svg xmlns="http://www.w3.org/2000/svg" xmlns:xlink="http://www.w3.org/1999/xlink" width="110px" height="66px" viewBox="0 0 110 66"><title>D7B14A4E-0945-4728-8427-7BEBB0F62338</title><g id="Page-1" stroke="none" stroke-width="1" fill="none" fill-rule="evenodd"><g id="Landingpage" transform="translate(-734.000000, -5451.000000)" fill-rule="nonzero"><g id="Group-36" transform="translate(0.000000, 4798.000000)"><g id="Plugins-Copy" transform="translate(273.000000, 325.000000)"><g id="Group-26" transform="translate(1.000000, 281.000000)"><g id="Group-11-Copy-18" transform="translate(426.000000, 0.000000)"><g id="woocommerce-logo" transform="translate(34.000000, 47.000000)"><path d="M10.2088011,0 L99.7465554,0 C105.412933,0 110,4.58706729 110,10.2534445 L110,44.4315927 C110,50.0979699 105.412933,54.6850373 99.7465554,54.6850373 L67.6370845,54.6850373 L72.0442667,65.4781368 L52.6616591,54.6850373 L10.2537724,54.6850373 C4.58739514,54.6850373 -1.27620137e-12,50.0979699 -1.27620137e-12,44.4315927 L-1.27620137e-12,10.2534445 C-0.0446433797,4.63203851 4.54242387,0 10.2088011,0 L10.2088011,0 Z" id="Path" fill="#9B5C8F"></path><path d="M6.26407005,9.34552846 C6.89008629,8.49593495 7.8291107,8.04878048 9.0811432,7.95934958 C11.361631,7.78048782 12.658379,8.85365852 12.9713871,11.1788618 C14.357566,20.5243903 15.8778912,28.4390244 17.4876473,34.9227642 L27.2803302,16.2764228 C28.1746392,14.5772358 29.2925253,13.6829268 30.6339887,13.593496 C32.6014684,13.4593496 33.8087855,14.7113821 34.3006554,17.3495935 C35.4185416,23.296748 36.8494359,28.3495935 38.5486229,32.6422764 C39.7112245,21.2845528 41.6787042,13.101626 44.4510619,8.04878048 C45.1217938,6.79674798 46.1055336,6.1707317 47.4022815,6.0813008 C48.4307368,5.9918699 49.3697613,6.30487804 50.2193545,6.97560974 C51.068948,7.64634148 51.5161023,8.49593495 51.6055336,9.52439026 C51.6502491,10.3292683 51.5161023,11 51.1583789,11.6707317 C49.4144767,14.8902439 47.9835821,20.300813 46.8209805,27.8130081 C45.7030943,35.101626 45.3006555,40.7804878 45.568948,44.8495936 C45.6583789,45.9674798 45.4795172,46.9512196 45.0323629,47.8008128 C44.4957773,48.7845527 43.6908991,49.3211383 42.662444,49.4105691 C41.4998424,49.5 40.2925253,48.9634148 39.1299237,47.7560974 C34.9713871,43.5081303 31.662444,37.1585366 29.2478099,28.7073171 C26.3413058,34.4308943 24.1949644,38.7235772 22.8087855,41.5853659 C20.1705741,46.6382112 17.9348018,49.2317074 16.056753,49.3658537 C14.8494359,49.4552846 13.8209806,48.4268293 12.9266717,46.2804878 C10.6461838,40.4227642 8.18683426,29.1097561 5.54862288,12.3414634 C5.36976107,11.1788618 5.63805378,10.1504065 6.26407005,9.34552846 Z M102.357566,16.3658537 C100.74781,13.5487805 98.3778911,11.8495935 95.2030943,11.1788618 C94.3535007,11 93.548623,10.9105691 92.7884603,10.9105691 C88.4957773,10.9105691 85.0079725,13.1463415 82.28033,17.6178862 C79.9551268,21.4186992 78.7925252,25.6219512 78.7925252,30.2276423 C78.7925252,33.6707317 79.5079725,36.6219512 80.9388667,39.0813008 C82.548623,41.898374 84.9185416,43.5975611 88.0933384,44.2682926 C88.942932,44.4471543 89.7478098,44.5365852 90.5079725,44.5365852 C94.8453709,44.5365852 98.3331757,42.300813 101.016102,37.8292683 C103.341306,33.9837398 104.503908,29.7804878 104.503908,25.1747968 C104.548623,21.6869919 103.78846,18.7804878 102.357566,16.3658537 Z M96.7234198,28.7520325 C96.0974034,31.703252 94.9795172,33.8943089 93.3250459,35.3699187 C92.0282975,36.5325203 90.8209805,37.0243903 89.7030943,36.800813 C88.6299236,36.5772358 87.7356146,35.6382114 87.0648831,33.8943089 C86.5282975,32.5081301 86.260005,31.1219512 86.260005,29.8252032 C86.260005,28.7073171 86.3494358,27.5894309 86.573013,26.5609756 C86.9754523,24.7276423 87.7356146,22.9390244 88.942932,21.2398374 C90.4185416,19.0487805 91.9835821,18.1544715 93.5933384,18.4674797 C94.6665092,18.6910569 95.5608182,19.6300813 96.2315496,21.3739837 C96.7681352,22.7601626 97.0364278,24.1463415 97.0364278,25.4430894 C97.0364278,26.6056911 96.946997,27.7235772 96.7234198,28.7520325 Z M74.3656959,16.3658537 C72.75594,13.5487805 70.341306,11.8495935 67.2112246,11.1788618 C66.361631,11 65.5567529,10.9105691 64.7965905,10.9105691 C60.5039076,10.9105691 57.0161023,13.1463415 54.2884603,17.6178862 C51.9632571,21.4186992 50.8006555,25.6219512 50.8006555,30.2276423 C50.8006555,33.6707317 51.5161023,36.6219512 52.946997,39.0813008 C54.5567529,41.898374 56.9266715,43.5975611 60.1014683,44.2682926 C60.9510619,44.4471543 61.75594,44.5365852 62.5161023,44.5365852 C66.8535007,44.5365852 70.341306,42.300813 73.0242326,37.8292683 C75.3494358,33.9837398 76.5120374,29.7804878 76.5120374,25.1747968 C76.5120374,21.6869919 75.7965905,18.7804878 74.3656959,16.3658537 Z M68.6868342,28.7520325 C68.0608182,31.703252 66.942932,33.8943089 65.2884603,35.3699187 C63.9917124,36.5325203 62.7843954,37.0243903 61.6665092,36.800813 C60.5933384,36.5772358 59.6990294,35.6382114 59.0282975,33.8943089 C58.4917124,32.5081301 58.2234198,31.1219512 58.2234198,29.8252032 C58.2234198,28.7073171 58.3128507,27.5894309 58.5364278,26.5609756 C58.9388667,24.7276423 59.6990294,22.9390244 60.9063464,21.2398374 C62.3819561,19.0487805 63.946997,18.1544715 65.5567529,18.4674797 C66.6299236,18.6910569 67.5242326,19.6300813 68.1949645,21.3739837 C68.7315496,22.7601626 68.9998422,24.1463415 68.9998422,25.4430894 C69.0445577,26.6056911 68.9104114,27.7235772 68.6868342,28.7520325 L68.6868342,28.7520325 L68.6868342,28.7520325 Z" id="Shape" fill="#FFFFFF"></path></g></g></g></g></g></g></g></svg>